<svg width="153" height="30" viewBox="0 0 153 30" fill="none" xmlns="http://www.w3.org/2000/svg">
<path d="M11.032 0.559999C13.096 0.559999 14.836 0.979999 16.252 1.82C17.668 2.66 18.868 3.86 19.852 5.42C20.14 5.876 20.284 6.308 20.284 6.716C20.284 7.244 20.044 7.676 19.564 8.012C19.3 8.18 18.988 8.264 18.628 8.264C18.268 8.264 17.932 8.18 17.62 8.012C17.308 7.82 17.068 7.568 16.9 7.256C16.252 6.176 15.436 5.36 14.452 4.808C13.492 4.232 12.268 3.944 10.78 3.944C8.956 3.944 7.48 4.304 6.352 5.024C5.224 5.72 4.66 6.74 4.66 8.084C4.66 9.332 5.164 10.376 6.172 11.216C7.18 12.056 8.98 12.608 11.572 12.872C14.452 13.16 16.684 14.036 18.268 15.5C19.852 16.94 20.644 18.848 20.644 21.224C20.644 22.952 20.176 24.44 19.24 25.688C18.304 26.912 17.056 27.836 15.496 28.46C13.96 29.06 12.304 29.36 10.528 29.36C8.2 29.36 6.076 28.832 4.156 27.776C2.26 26.72 0.952 25.34 0.232 23.636C0.112 23.348 0.0520001 23.108 0.0520001 22.916C0.0520001 22.556 0.184 22.244 0.448 21.98C0.712 21.692 1.072 21.5 1.528 21.404C1.6 21.38 1.72 21.368 1.888 21.368C2.272 21.368 2.632 21.488 2.968 21.728C3.328 21.944 3.592 22.244 3.76 22.628C4.192 23.564 5.044 24.356 6.316 25.004C7.588 25.652 8.992 25.976 10.528 25.976C12.328 25.976 13.852 25.568 15.1 24.752C16.348 23.912 16.972 22.772 16.972 21.332C16.972 19.964 16.444 18.8 15.388 17.84C14.332 16.856 12.724 16.256 10.564 16.04C7.588 15.752 5.248 14.888 3.544 13.448C1.84 11.984 0.988 10.16 0.988 7.976C0.988 6.44 1.42 5.12 2.284 4.016C3.172 2.888 4.372 2.036 5.884 1.46C7.42 0.859999 9.136 0.559999 11.032 0.559999ZM30.1292 27.128C30.1292 27.656 29.9492 28.1 29.5892 28.46C29.2292 28.82 28.7852 29 28.2572 29C27.7532 29 27.3092 28.82 26.9252 28.46C26.5652 28.1 26.3852 27.656 26.3852 27.128V2.756C26.3852 2.228 26.5652 1.784 26.9252 1.424C27.3092 1.064 27.7532 0.883999 28.2572 0.883999C28.7852 0.883999 29.2292 1.064 29.5892 1.424C29.9492 1.784 30.1292 2.228 30.1292 2.756V13.556L42.0452 1.64C42.3332 1.352 42.5852 1.16 42.8012 1.064C43.0412 0.943999 43.3052 0.883999 43.5932 0.883999C44.0972 0.883999 44.4812 1.04 44.7452 1.352C45.0332 1.64 45.1772 2 45.1772 2.432C45.1772 3.056 44.9492 3.596 44.4932 4.052L35.3132 13.268L44.6732 26.012C44.9132 26.348 45.0332 26.732 45.0332 27.164C45.0332 27.644 44.8772 28.076 44.5652 28.46C44.2532 28.82 43.8572 29 43.3772 29C42.7052 29 42.1892 28.736 41.8292 28.208L32.7212 15.86L30.1292 18.452V27.128ZM69.5044 0.883999C69.9604 0.883999 70.3324 1.052 70.6204 1.388C70.9324 1.724 71.0884 2.132 71.0884 2.612C71.0884 3.02 70.9684 3.416 70.7284 3.8L61.0444 18.74V27.128C61.0444 27.656 60.8644 28.1 60.5044 28.46C60.1444 28.82 59.7004 29 59.1724 29C58.6684 29 58.2364 28.82 57.8764 28.46C57.5164 28.1 57.3364 27.656 57.3364 27.128V18.74L47.7244 3.8C47.4604 3.392 47.3284 3.008 47.3284 2.648C47.3284 2.144 47.5084 1.724 47.8684 1.388C48.2524 1.052 48.6964 0.883999 49.2004 0.883999C49.5844 0.883999 49.8964 0.967999 50.1364 1.136C50.3764 1.304 50.6164 1.568 50.8564 1.928L59.2804 15.284L67.8484 1.784C68.2324 1.184 68.7844 0.883999 69.5044 0.883999ZM85.3416 0.883999C86.9496 0.883999 88.3776 1.208 89.6256 1.856C90.8736 2.48 91.8456 3.368 92.5416 4.52C93.2616 5.648 93.6216 6.932 93.6216 8.372C93.6216 9.548 93.2976 10.604 92.6496 11.54C92.0256 12.476 91.1616 13.232 90.0576 13.808C91.6896 14.192 92.9736 14.96 93.9096 16.112C94.8456 17.264 95.3136 18.728 95.3136 20.504C95.3136 22.136 94.9176 23.6 94.1256 24.896C93.3576 26.192 92.2656 27.2 90.8496 27.92C89.4576 28.64 87.8736 29 86.0976 29H76.7376C76.2096 29 75.7656 28.82 75.4056 28.46C75.0456 28.1 74.8656 27.656 74.8656 27.128V2.756C74.8656 2.204 75.0456 1.76 75.4056 1.424C75.7656 1.064 76.2096 0.883999 76.7376 0.883999H85.3416ZM85.3416 12.44C86.7576 12.44 87.8856 12.092 88.7256 11.396C89.5896 10.7 90.0216 9.692 90.0216 8.372C90.0216 7.052 89.5896 6.056 88.7256 5.384C87.8856 4.688 86.7576 4.34 85.3416 4.34H78.6096V12.44H85.3416ZM86.0976 25.544C87.7776 25.544 89.1336 25.112 90.1656 24.248C91.1976 23.36 91.7136 22.112 91.7136 20.504C91.7136 19.016 91.1976 17.876 90.1656 17.084C89.1576 16.292 87.8016 15.896 86.0976 15.896H78.6096V25.544H86.0976ZM113.174 0.524C115.934 0.524 118.394 1.136 120.554 2.36C122.738 3.584 124.43 5.288 125.63 7.472C126.854 9.656 127.466 12.14 127.466 14.924C127.466 17.708 126.854 20.204 125.63 22.412C124.43 24.596 122.75 26.3 120.59 27.524C118.43 28.748 115.958 29.36 113.174 29.36C110.39 29.36 107.906 28.748 105.722 27.524C103.562 26.3 101.882 24.596 100.682 22.412C99.4821 20.204 98.8821 17.708 98.8821 14.924C98.8821 12.14 99.4821 9.656 100.682 7.472C101.882 5.288 103.562 3.584 105.722 2.36C107.906 1.136 110.39 0.524 113.174 0.524ZM113.174 3.908C111.11 3.908 109.262 4.388 107.63 5.348C106.022 6.308 104.762 7.628 103.85 9.308C102.938 10.988 102.482 12.86 102.482 14.924C102.482 16.988 102.938 18.86 103.85 20.54C104.762 22.22 106.034 23.552 107.666 24.536C109.298 25.496 111.134 25.976 113.174 25.976C115.214 25.976 117.05 25.496 118.682 24.536C120.314 23.552 121.586 22.22 122.498 20.54C123.41 18.86 123.866 16.988 123.866 14.924C123.866 12.86 123.41 10.988 122.498 9.308C121.586 7.628 120.314 6.308 118.682 5.348C117.074 4.388 115.238 3.908 113.174 3.908ZM151.941 25.976C152.205 26.36 152.337 26.768 152.337 27.2C152.337 27.68 152.181 28.1 151.869 28.46C151.557 28.82 151.137 29 150.609 29C150.009 29 149.529 28.772 149.169 28.316L141.357 17.48L133.077 28.46C132.717 28.82 132.285 29 131.781 29C131.253 29 130.833 28.832 130.521 28.496C130.233 28.16 130.089 27.752 130.089 27.272C130.089 26.792 130.233 26.36 130.521 25.976L138.909 14.816L130.989 3.836C130.749 3.524 130.629 3.152 130.629 2.72C130.629 2.216 130.785 1.784 131.097 1.424C131.409 1.064 131.829 0.883999 132.357 0.883999C132.981 0.883999 133.425 1.064 133.689 1.424L141.429 12.152L149.493 1.424C149.829 1.064 150.273 0.883999 150.825 0.883999C151.329 0.883999 151.725 1.052 152.013 1.388C152.325 1.724 152.481 2.132 152.481 2.612C152.481 3.02 152.349 3.428 152.085 3.836L143.877 14.78L151.941 25.976Z" fill="white"/>
</svg>
